HIERARCHY
ROOT Hips
{
     OFFSET 14.39700 99.23700 -81.53610
     CHANNELS 6 Xposition Yposition Zposition Zrotation Xrotation Yrotation
     JOINT Spine
     {
          OFFSET -0.00000 11.89050 -0.00000
          CHANNELS 3 Zrotation Xrotation Yrotation
          JOINT Spine1
          {
               OFFSET -0.00000 25.65740 0.12766
               CHANNELS 3 Zrotation Xrotation Yrotation
               JOINT HEad
               {
                    OFFSET 0.00000 8.73416 0.01134
                    CHANNELS 3 Zrotation Xrotation Yrotation
                    End Site
                    {
                         OFFSET -0.29000 12.77420 2.51395
                    }
               }
               JOINT LeftShoulder1
               {
                    OFFSET 8.99000 -0.36225 -0.22000
                    CHANNELS 3 Zrotation Xrotation Yrotation
                    JOINT LeftArm
                    {
                         OFFSET 10.28270 -0.00338 0.32212
                         CHANNELS 3 Zrotation Xrotation Yrotation
                         JOINT LeftForeArm
                         {
                              OFFSET 32.76690 0.09914 -1.42434
                              CHANNELS 3 Zrotation Xrotation Yrotation
                              JOINT LeftHand
                              {
                                   OFFSET 27.56430 0.08536 1.02216
                                   CHANNELS 3 Zrotation Xrotation Yrotation
                                   End Site
                                   {
                                        OFFSET 16.74430 -0.60000 1.50291
                                   }
                              }
                         }
                    }
               }
               JOINT RightShoulder
               {
                    OFFSET -8.99000 -0.36225 -0.22000
                    CHANNELS 3 Zrotation Xrotation Yrotation
                    JOINT RightArm
                    {
                         OFFSET -10.28270 -0.00338 0.32212
                         CHANNELS 3 Zrotation Xrotation Yrotation
                         JOINT RightForeArm
                         {
                              OFFSET -32.89710 0.09914 -1.42434
                              CHANNELS 3 Zrotation Xrotation Yrotation
                              JOINT RightHand
                              {
                                   OFFSET -27.49210 0.08536 1.02216
                                   CHANNELS 3 Zrotation Xrotation Yrotation
                                   End Site
                                   {
                                        OFFSET -16.63120 -0.60000 1.50291
                                   }
                              }
                         }
                    }
               }
          }
     }
     JOINT LeftUpLeg
     {
          OFFSET 8.94580 -8.66707 0.10165
          CHANNELS 3 Zrotation Xrotation Yrotation
          JOINT LeftLeg
          {
               OFFSET 0.00000 -44.42270 1.37270
               CHANNELS 3 Zrotation Xrotation Yrotation
               JOINT LeftFoot
               {
                    OFFSET -0.25355 -42.09240 -1.46059
                    CHANNELS 3 Zrotation Xrotation Yrotation
                    JOINT LeftToes
                    {
                         OFFSET -0.04000 -4.41509 8.49910
                         CHANNELS 3 Zrotation Xrotation Yrotation
                         End Site
                         {
                              OFFSET 0.08000 -0.04745 9.77979
                         }
                    }
               }
          }
     }
     JOINT RightUpLeg
     {
          OFFSET -8.94580 -8.66707 0.10165
          CHANNELS 3 Zrotation Xrotation Yrotation
          JOINT RightLeg
          {
               OFFSET 0.00000 -44.42270 1.37270
               CHANNELS 3 Zrotation Xrotation Yrotation
               JOINT RightFoot
               {
                    OFFSET 0.25355 -42.09240 -1.46059
                    CHANNELS 3 Zrotation Xrotation Yrotation
                    JOINT RightToes
                    {
                         OFFSET 0.04000 -4.41509 8.49910
                         CHANNELS 3 Zrotation Xrotation Yrotation
                         End Site
                         {
                              OFFSET -0.08000 -0.13745 9.77979
                         }
                    }
               }
          }
     }
}
MOTION
Frames: 10
Frame Time: 0.01667
21.25700 84.09370 3.13521 0.82269 -13.95630 -44.43530 -4.97356 10.55810 2.80030 -4.79419 20.51250 5.00464 -4.28612 -2.73582 31.06360 -0.00000 -0.00000 0.00000 -92.17270 -43.31430 -91.56440 -18.16650 31.28330 -82.37940 5.55594 9.67997 -0.87718 14.05400 1.01895 3.44927 65.91590 -15.46950 83.69210 16.52070 35.37310 91.57440 -5.55712 9.68432 0.87760 12.07670 -29.60760 10.16000 5.11499 49.85050 -39.39540 -16.64200 -13.28480 -0.77074 1.54946 -8.09718 -8.43416 -15.39970 -18.92830 -5.80748 -16.25300 80.56710 18.76370 23.50450 -38.60540 6.50980 -3.22220 -3.11272 3.17894 
21.11820 85.02300 4.66327 1.78491 -13.81460 -43.28000 -4.86640 10.27190 3.02360 -4.92936 19.92870 5.57395 -4.86005 -1.84464 29.88850 -0.00000 -0.00000 0.00000 -91.08230 -42.70030 -91.27320 -17.87600 31.04230 -82.18260 5.55594 9.67997 -0.87718 13.49040 0.97069 3.31577 65.21350 -14.27700 84.86980 15.80860 34.11850 91.35610 -5.55712 9.68432 0.87760 10.38400 -29.41030 9.92422 5.03296 49.21110 -39.77460 -16.41750 -13.88370 -0.84415 1.58064 -5.35403 -7.93378 -13.99370 -16.93370 -3.77411 -14.45470 77.19950 11.16360 21.25670 -37.15670 5.53127 -4.00494 -4.83709 1.87207 
21.03510 86.03860 6.09666 2.59505 -13.53510 -42.36870 -4.74567 9.96756 3.24680 -4.87618 19.30860 6.07559 -5.63632 -0.94574 28.95720 -0.00000 -0.00000 0.00000 -90.58020 -42.52460 -91.20330 -17.67480 30.86460 -82.05730 5.55594 9.67997 -0.87718 12.81120 0.91641 3.16782 64.17640 -12.96640 86.03990 14.95360 32.53700 91.07380 -5.55712 9.68432 0.87760 8.78493 -28.98870 9.48839 5.01128 48.09300 -39.75300 -16.52050 -13.90640 -0.85320 1.61722 -3.75902 -7.79627 -12.86700 -15.12240 -1.90385 -13.93810 74.20320 5.80913 19.79110 -35.53390 4.80323 -4.14920 -5.50890 0.86133 
21.02370 87.14980 7.44713 3.20379 -13.10630 -41.65140 -4.52850 9.65762 3.43796 -4.61866 18.69160 6.47891 -6.54390 -0.06141 28.21220 -0.00000 -0.00000 0.00000 -90.67970 -42.64160 -91.38300 -17.56010 30.74510 -81.91160 5.55594 9.67997 -0.87718 12.08470 0.86120 3.01480 62.99490 -11.65680 87.14760 14.04330 30.76000 90.71570 -5.55712 9.68432 0.87760 7.30264 -28.37660 8.86450 5.10365 46.54250 -39.42210 -16.85270 -13.38170 -0.79557 1.66671 -3.24062 -7.94503 -12.03940 -13.49860 -0.33032 -13.58790 71.40200 1.94416 19.00910 -33.75370 4.27013 -4.01310 -5.59503 0.29570 
21.08140 88.35170 8.72306 3.58903 -12.52900 -41.08690 -4.16679 9.34580 3.58265 -4.16811 18.09510 6.78073 -7.49486 0.80761 27.59460 -0.00000 -0.00000 0.00000 -91.30340 -42.88540 -91.78300 -17.52180 30.67740 -81.68630 5.55594 9.67997 -0.87718 11.39450 0.81101 2.87198 61.82120 -10.44550 88.12150 13.14890 28.91690 90.28730 -5.55712 9.68432 0.87760 5.98636 -27.59480 8.08142 5.28158 44.61470 -38.84150 -17.31580 -12.38130 -0.66999 1.71700 -3.56977 -8.26766 -11.51050 -12.04200 0.83612 -13.02460 68.62820 -0.71322 18.69730 -31.85830 3.85662 -3.83392 -5.44817 0.11210 
21.19290 89.62170 9.92963 3.75628 -11.81900 -40.65230 -3.65348 9.03030 3.68245 -3.56069 17.51820 6.99822 -8.40408 1.67337 27.06480 -0.00000 -0.00000 0.00000 -92.30450 -43.11550 -92.32410 -17.54840 30.65860 -81.36900 5.55594 9.67997 -0.87718 10.81850 0.77079 2.75477 60.75780 -9.39334 88.89340 12.31920 27.11750 89.80740 -5.55712 9.68432 0.87760 4.89963 -26.66240 7.19484 5.47229 42.38170 -38.06130 -17.83690 -11.01530 -0.48228 1.75256 -4.43759 -8.65064 -11.26710 -10.71900 1.53605 -12.13150 65.77090 -2.36999 18.64670 -29.91730 3.50552 -3.70071 -5.24296 0.18079 
21.33780 90.92130 11.06880 3.73437 -11.00470 -40.34360 -3.01806 8.70793 3.74977 -2.84909 16.95070 7.15861 -9.20735 2.55181 26.61330 -0.00000 -0.00000 0.00000 -93.49930 -43.24750 -92.90010 -17.62900 30.68910 -80.99000 5.55594 9.67997 -0.87718 10.40930 0.74316 2.67295 59.86400 -8.52323 89.41810 11.58410 25.44590 89.30140 -5.55712 9.68432 0.87760 4.09782 -25.60720 6.28327 5.60613 39.93280 -37.14510 -18.38320 -9.42486 -0.24752 1.76632 -5.52281 -9.00395 -11.28460 -9.49265 1.77678 -10.91410 62.78950 -3.21576 18.70040 -28.00540 3.18501 -3.61194 -5.03104 0.38370 
21.49580 92.20350 12.14010 3.56734 -10.12120 -40.16900 -2.31543 8.37761 3.80120 -2.09116 16.38160 7.28904 -9.87036 3.45480 26.26100 -0.00000 -0.00000 0.00000 -94.70190 -43.26160 -93.40590 -17.75390 30.76820 -80.60450 5.55594 9.67997 -0.87718 10.18280 0.72808 2.62733 59.16810 -7.82846 89.68490 10.95960 23.96330 88.79770 -5.55712 9.68432 0.87760 3.60741 -24.47030 5.43230 5.64725 37.36870 -36.17170 -18.96030 -7.76745 0.01273 1.76219 -6.54860 -9.27419 -11.52620 -8.33148 1.63142 -9.44236 59.70600 -3.41027 18.76340 -26.18600 2.88342 -3.53604 -4.81050 0.63642 
21.65090 93.42050 13.14150 3.30426 -9.20497 -40.13890 -1.60927 8.04178 3.85109 -1.33966 15.80470 7.40965 -10.38640 4.38471 26.04800 -0.00000 -0.00000 0.00000 -95.75280 -43.18880 -93.76220 -17.91140 30.88890 -80.27120 5.55594 9.67997 -0.87718 10.11990 0.72336 2.61034 58.67560 -7.28545 89.71760 10.45270 22.71140 88.32460 -5.55712 9.68432 0.87760 3.41683 -23.30100 4.71575 5.59986 34.79310 -35.21970 -19.59270 -6.19544 0.27570 1.75081 -7.32232 -9.44793 -11.94190 -7.21542 1.22081 -7.82472 56.58460 -3.06145 18.79900 -24.51190 2.60311 -3.43624 -4.55999 0.88204 
21.79290 94.52990 14.07080 2.98771 -8.28749 -40.25610 -0.95061 7.70540 3.90508 -0.63442 15.22090 7.53082 -10.76620 5.33133 26.01770 -0.00000 -0.00000 0.00000 -96.53500 -43.08670 -93.92800 -18.08580 31.03550 -80.03530 5.55594 9.67997 -0.87718 10.17690 0.72553 2.60992 58.37680 -6.86757 89.56490 10.06520 21.71730 87.90830 -5.55712 9.68432 0.87760 3.48411 -22.15150 4.18034 5.49509 32.30870 -34.34910 -20.29390 -4.83543 0.52090 1.74324 -7.75338 -9.54374 -12.46750 -6.13961 0.68304 -6.19767 53.51170 -2.21608 18.82060 -23.03480 2.35543 -3.26841 -4.24126 1.07816 
